Coordinates
version=1
nRows=9
nColumns=36
inDegrees=yes

Units are S.I. units (second, meters, Newtons, ...)
If the header above contains a line with 'inDegrees', this indicates whether rotational values are in degrees (yes) or radians (no).

endheader
time	pelvis_tilt	pelvis_list	pelvis_rotation	pelvis_tx	pelvis_ty	pelvis_tz	hip_flexion_r	hip_adduction_r	hip_rotation_r	knee_angle_r	knee_angle_r_beta	ankle_angle_r	subtalar_angle_r	mtp_angle_r	hip_flexion_l	hip_adduction_l	hip_rotation_l	knee_angle_l	knee_angle_l_beta	ankle_angle_l	subtalar_angle_l	mtp_angle_l	lumbar_extension	lumbar_bending	lumbar_rotation	arm_flex_r	arm_add_r	arm_rot_r	elbow_flex_r	pro_sup_r	arm_flex_l	arm_add_l	arm_rot_l	elbow_flex_l	pro_sup_l
      2.87916670	     -6.30399628	     -0.13082046	      4.30736801	      0.41573219	      1.32343600	     -0.01809516	      8.23344401	     -6.38246918	    -19.72533118	      0.85063529	      0.01484639	    -33.81233642	     -5.95648665	     -7.49999987	      5.29467865	     -7.74898967	     -9.63562542	      2.20867357	      0.03854863	    -37.98443001	     -6.16404194	     -7.49999987	     -2.33026894	     -4.04490417	     -2.00678878	     -6.08523930	    -13.57596472	     61.40583797	     17.43189548	     40.18976968	   -183.00453944	   -168.31997312	   -122.18145343	     18.01337159	     30.17420706
      2.88333330	     -6.32987837	     -0.23546267	      4.40100346	      0.41759907	      1.31946027	     -0.01702856	      8.46391699	     -6.39417829	    -19.55574516	      0.91831045	      0.01602754	    -33.53702397	     -6.24301325	     -7.49999987	      5.49436149	     -7.89943437	     -9.46270064	      2.21692272	      0.03869260	    -37.87651877	     -6.23223696	     -7.49999987	     -2.63373146	     -3.80696665	     -2.23109883	     -5.82194700	    -13.91805998	     63.03018529	     17.57042437	     41.14382828	   -183.27770932	   -168.04645098	   -122.34380097	     18.89549837	     30.52245821
      2.88750000	     -6.42325626	     -0.29743696	      4.49348484	      0.41563379	      1.31966132	     -0.01629089	      8.81637351	     -6.48031393	    -19.47337289	      1.01864853	      0.01777877	    -33.14740020	     -6.27505516	     -7.49999987	      5.85590105	     -7.99670170	     -9.60246775	      2.27693228	      0.03973997	    -37.83630095	     -6.28412555	     -7.49999987	     -2.93274727	     -3.67090795	     -2.43302597	     -5.65606505	    -14.15892702	     64.28458531	     17.93930138	     41.65026586	   -183.45606144	   -167.85332501	   -122.98982589	     19.30733887	     31.78785217
      2.89166670	     -6.36164291	     -0.32386492	      4.55227826	      0.41488533	      1.31875612	     -0.01583352	      8.98668502	     -6.58113194	    -19.38459859	      1.08243542	      0.01889206	    -32.92051010	     -6.53250495	     -7.49999987	      6.01399816	     -8.07135934	     -9.60078224	      2.32423480	      0.04056555	    -37.79089811	     -6.33723030	     -7.49999987	     -3.46062313	     -3.58449194	     -2.37288898	     -5.81363062	    -14.32239838	     63.36380788	     18.41758757	     44.06891979	   -183.13407145	   -167.38924983	   -121.44617944	     19.55823287	     35.41146331
      2.89583330	     -6.51731875	     -0.43405606	      4.69095929	      0.41485700	      1.31392040	     -0.01619111	      9.39691077	     -6.66002961	    -19.70834185	      1.18642747	      0.02070707	    -32.62621196	     -6.47512441	     -7.49999987	      6.47434504	     -8.20529956	     -9.41873129	      2.43354397	      0.04247335	    -37.67720672	     -6.45951776	     -7.49999987	     -3.58088197	     -3.38985708	     -2.27098485	     -6.07420839	    -14.45747479	     64.29964168	     18.53768608	     43.90919963	   -182.83386068	   -167.01798045	   -118.93104678	     19.81424536	     33.49522238
      2.90000000	     -6.61571764	     -0.50613632	      4.70642676	      0.41238561	      1.31229582	     -0.01712645	      9.83532629	     -6.81063283	    -19.61531920	      1.36627950	      0.02384608	    -32.58290450	     -6.64588712	     -7.49999987	      6.89538075	     -8.28657529	     -9.47280403	      2.57399184	      0.04492463	    -37.56596891	     -6.48548846	     -7.49999987	     -3.72340545	     -3.28758731	     -2.37814430	     -5.68805112	    -14.93259514	     68.50767394	     19.04857103	     39.69008100	   -182.79855815	   -166.70095811	   -117.90324107	     20.16294294	     31.79992515
      2.90416670	     -6.71101878	     -0.57865789	      4.82046433	      0.41240836	      1.30647128	     -0.01635979	     10.21160628	     -6.93461954	    -19.63590422	      1.58031014	      0.02758162	    -32.32294455	     -6.79201929	     -7.49999987	      7.33205973	     -8.32536107	     -9.62124888	      2.71793333	      0.04743689	    -37.37406222	     -6.83181632	     -7.49999987	     -4.01906781	     -3.15145913	     -2.12682690	     -6.11588615	    -15.17127210	     67.01741721	     19.57854111	     41.04850104	   -182.21569679	   -166.24623297	   -115.39028559	     20.33658493	     32.32064608
      2.90833330	     -6.79532096	     -0.64274341	      4.93785023	      0.41319425	      1.30750375	     -0.01653263	     10.52661577	     -7.09866956	    -19.61149257	      1.72982516	      0.03019114	    -32.23215849	     -6.85016856	     -7.49999987	      7.66370229	     -8.36111487	     -9.50810696	      2.73280686	      0.04769648	    -37.41008559	     -7.18154270	     -7.49999987	     -4.25816829	     -3.05547884	     -2.35141246	     -5.94952063	    -15.56337780	     67.50932491	     19.83282965	     42.97533614	   -182.46910998	   -165.87538740	   -117.04043160	     20.83755162	     34.37709135
      2.91250000	     -6.81464434	     -0.73827167	      5.02510413	      0.41198694	      1.30282194	     -0.01754758	     10.81951444	     -7.23641539	    -19.46376543	      1.91369150	      0.03340022	    -32.21778974	     -7.14114833	     -7.49999987	      7.95623565	     -8.38817024	     -9.74877273	      2.76037915	      0.04817770	    -37.36018399	     -7.72975084	     -7.49999987	     -4.55251244	     -2.92221571	     -2.54357197	     -5.79685906	    -15.95372083	     69.45136424	     20.32995390	     42.53775415	   -182.44638839	   -165.40529438	   -116.78291714	     21.48374697	     33.69566129
